# xmcd
#
# Track frame offsets: 
#        150
#        25300
#        42812
#        63325
#        91220
#        109707
#        126307
#        145222
#        165462
#
# Disc length: 2410 seconds
#
# Revision: 0
# Processed by: cddbd v1.5.2PL0 Copyright (c) Steve Scherf et al.
# Submitted via: ExactAudioCopy v1.0b2
#
DISCID=72096809
DTITLE=Jelly Roll - Captain Strange
DYEAR=1993
DGENRE=Blues
TTITLE0=She Comes Home
TTITLE1=Missin You
TTITLE2=Gettin Back to That
TTITLE3=Southbound Train
TTITLE4=Straw That Broke
TTITLE5=Captain Strange
TTITLE6=Last Time
TTITLE7=Highway
TTITLE8=Sweet Cherry Wine
EXTD=
EXTT0=
EXTT1=
EXTT2=
EXTT3=
EXTT4=
EXTT5=
EXTT6=
EXTT7=
EXTT8=
PLAYORDER=
